<svg xmlns="http://www.w3.org/2000/svg" viewBox="0 0 706.7 127.9"><defs><style>.cls-1{isolation:isolate;}.cls-2{fill:#333;}.cls-2,.cls-3,.cls-4{fill-rule:evenodd;}.cls-3{fill:#ca312c;}.cls-4{fill:#91b949;}</style></defs><title>cp_logoAsset 3</title><g id="Layer_2" data-name="Layer 2"><g id="coinpaprika_copy_16" data-name="coinpaprika copy 16" class="cls-1"><path class="cls-2" d="M209.68,97.07a27.91,27.91,0,0,1-3.09.57,23.55,23.55,0,0,1-2.94.2,14.06,14.06,0,0,1-5.22-.94,11.09,11.09,0,0,1-4-2.7,12,12,0,0,1-2.59-4.29,16.63,16.63,0,0,1-.91-5.7,17.48,17.48,0,0,1,.85-5.59,12,12,0,0,1,2.45-4.33,11.23,11.23,0,0,1,4-2.79,13.32,13.32,0,0,1,5.3-1,28,28,0,0,1,11.85,2.83V63A42.52,42.52,0,0,0,210,61.86a48.93,48.93,0,0,0-7.25-.46,26.45,26.45,0,0,0-9.56,1.66,20.43,20.43,0,0,0-12.05,12.06,26.24,26.24,0,0,0-1.68,9.62A27.81,27.81,0,0,0,181,94.4a18.7,18.7,0,0,0,4.46,7,18.89,18.89,0,0,0,7.09,4.26,28.94,28.94,0,0,0,9.45,1.44,39.76,39.76,0,0,0,7-.61,33.63,33.63,0,0,0,6.48-1.87V95.18a29.27,29.27,0,0,1-2.8,1C211.73,96.55,210.71,96.83,209.68,97.07Zm53.38-30.14a17.15,17.15,0,0,0-6.57-4.33,25,25,0,0,0-8.83-1.46,23.6,23.6,0,0,0-9.14,1.68,19.17,19.17,0,0,0-6.86,4.72,20.84,20.84,0,0,0-4.31,7.36,28.94,28.94,0,0,0-1.5,9.57,31.37,31.37,0,0,0,1.44,10,18.85,18.85,0,0,0,4.13,7.14,17.14,17.14,0,0,0,6.57,4.29,25.18,25.18,0,0,0,8.8,1.44,23.68,23.68,0,0,0,9.22-1.7,18.92,18.92,0,0,0,6.84-4.79,21,21,0,0,0,4.26-7.42,29.32,29.32,0,0,0,1.48-9.56,31.12,31.12,0,0,0-1.41-9.81A19,19,0,0,0,263.06,66.93Zm-6.13,22.72a14.3,14.3,0,0,1-1.83,4.46,8.52,8.52,0,0,1-3.18,3,9.38,9.38,0,0,1-4.61,1.07,9.23,9.23,0,0,1-7.62-3.5q-2.79-3.51-2.78-10.43a24,24,0,0,1,.58-5.4,13.51,13.51,0,0,1,1.85-4.41,9.21,9.21,0,0,1,3.22-3,9.72,9.72,0,0,1,4.75-1.08q5,0,7.64,3.46t2.59,10.34A24.19,24.19,0,0,1,256.93,89.65Zm35-34.75a7.25,7.25,0,0,0,2.22,1.48,7.09,7.09,0,0,0,2.77.54,6.91,6.91,0,0,0,2.74-.54,7.28,7.28,0,0,0,2.2-1.48,6.69,6.69,0,0,0,1.45-2.2,7.14,7.14,0,0,0,0-5.4A6.8,6.8,0,0,0,296.89,43a7.09,7.09,0,0,0-2.77.54,6.8,6.8,0,0,0-2.22,1.5,6.88,6.88,0,0,0-1.45,2.22,7.14,7.14,0,0,0,0,5.4A6.69,6.69,0,0,0,291.9,54.9Zm11,7.2H279.56v8.27h12.49V98.05H278v8.27h37.65V98.05H302.94Zm57.45,3.29a11.43,11.43,0,0,0-4.22-3.14,14.58,14.58,0,0,0-5.92-1.11,17,17,0,0,0-4.4.53,14.46,14.46,0,0,0-3.65,1.5A16.62,16.62,0,0,0,339,65.54a31.16,31.16,0,0,0-2.8,3.09L336,62.1h-9.19v44.22h10.62v-28a37.44,37.44,0,0,1,5.2-5.92,7.72,7.72,0,0,1,5.16-2.18q5.4,0,5.4,7.27v28.81h10.62V76.64a22.19,22.19,0,0,0-.85-6.38A13.3,13.3,0,0,0,360.39,65.39Zm50.95,1.78a14.09,14.09,0,0,0-5.11-4.46,15.1,15.1,0,0,0-7-1.57,16.93,16.93,0,0,0-4.39.53,14.38,14.38,0,0,0-3.66,1.5,16.25,16.25,0,0,0-3.15,2.37,30,30,0,0,0-2.81,3.09L385,62.1H375.8v61.5h10.62V106.32a22.76,22.76,0,0,0,3,.57,24.43,24.43,0,0,0,3.31.22,28,28,0,0,0,9.09-1.42,19.21,19.21,0,0,0,7.25-4.35A20.08,20.08,0,0,0,413.87,94a29.26,29.26,0,0,0,1.72-10.53,36.46,36.46,0,0,0-1.09-9.25A21.43,21.43,0,0,0,411.34,67.17Zm-7.68,22.9a14,14,0,0,1-2.24,4.68,10.23,10.23,0,0,1-3.53,3,10.12,10.12,0,0,1-4.59,1,23.36,23.36,0,0,1-3.76-.3,16.78,16.78,0,0,1-3.12-.79V78.34a37.44,37.44,0,0,1,5.2-5.92,7.74,7.74,0,0,1,5.16-2.18A6.68,6.68,0,0,1,400,71a6.27,6.27,0,0,1,2.4,2.42,13.74,13.74,0,0,1,1.5,4.22,31.63,31.63,0,0,1,.52,6.22A22.83,22.83,0,0,1,403.66,90.07Zm53.52-25.18a15.08,15.08,0,0,0-5.81-2.81,33.46,33.46,0,0,0-8.45-.94,44.27,44.27,0,0,0-8.64.83A42.33,42.33,0,0,0,427,64.06v8.49A40.13,40.13,0,0,1,434.33,70a33.93,33.93,0,0,1,7.72-.89,14.65,14.65,0,0,1,4.18.52A7.53,7.53,0,0,1,449,71.15a5.67,5.67,0,0,1,1.54,2.33,9.28,9.28,0,0,1,.48,3.07v2.66h-5.79a37.1,37.1,0,0,0-9.56,1.09,21.16,21.16,0,0,0-6.79,3,12.32,12.32,0,0,0-4,4.57,12.7,12.7,0,0,0-1.33,5.79,16.73,16.73,0,0,0,.89,5.57,11.72,11.72,0,0,0,2.63,4.31,11.92,11.92,0,0,0,4.31,2.78,16.38,16.38,0,0,0,6,1,20.51,20.51,0,0,0,4.72-.51,17.67,17.67,0,0,0,4-1.41,18.68,18.68,0,0,0,3.36-2.15,32.24,32.24,0,0,0,2.91-2.72l.26,5.78h9.1V76.12a17.94,17.94,0,0,0-1.09-6.55A11,11,0,0,0,457.18,64.89ZM451,92.7a33.86,33.86,0,0,1-5.27,4.62,8.29,8.29,0,0,1-4.61,1.6,7.3,7.3,0,0,1-4.74-1.41,5,5,0,0,1-1.75-4.11,6,6,0,0,1,.55-2.55,5.59,5.59,0,0,1,1.71-2.11,8.92,8.92,0,0,1,3-1.44,17.16,17.16,0,0,1,4.57-.52H451Zm58.35-25.53a14.2,14.2,0,0,0-5.12-4.46,15.05,15.05,0,0,0-7-1.57,17,17,0,0,0-4.4.53,14.46,14.46,0,0,0-3.65,1.5,16,16,0,0,0-3.16,2.37,31.23,31.23,0,0,0-2.81,3.09L483,62.1h-9.18v61.5h10.62V106.32a22.91,22.91,0,0,0,3,.57,24.43,24.43,0,0,0,3.31.22,27.94,27.94,0,0,0,9.09-1.42,19.14,19.14,0,0,0,7.25-4.35A20.08,20.08,0,0,0,511.89,94a29,29,0,0,0,1.72-10.53,36.48,36.48,0,0,0-1.08-9.25A21.63,21.63,0,0,0,509.37,67.17Zm-7.69,22.9a13.76,13.76,0,0,1-2.24,4.68,9.86,9.86,0,0,1-8.12,4,23.45,23.45,0,0,1-3.76-.3,16.86,16.86,0,0,1-3.11-.79V78.34a37.44,37.44,0,0,1,5.2-5.92,7.72,7.72,0,0,1,5.16-2.18,6.68,6.68,0,0,1,3.24.76,6.31,6.31,0,0,1,2.39,2.42A13.47,13.47,0,0,1,502,77.64a31.63,31.63,0,0,1,.52,6.22A22.44,22.44,0,0,1,501.68,90.07Zm57-24.36a11.22,11.22,0,0,0-4.35-3.41,14.47,14.47,0,0,0-5.94-1.16,18.07,18.07,0,0,0-4.49.53,13.94,13.94,0,0,0-3.72,1.5,15.05,15.05,0,0,0-3,2.33,17,17,0,0,0-2.46,3l-.4-6.44h-9.62v44.22h10.89v-28A27.82,27.82,0,0,1,541,72,8,8,0,0,1,545.87,70a5.28,5.28,0,0,1,2.39.53A4.46,4.46,0,0,1,550,72.2a8.12,8.12,0,0,1,1.05,2.87,20.63,20.63,0,0,1,.24,4.22H562a29.13,29.13,0,0,0-.72-7.9A14.85,14.85,0,0,0,558.64,65.71ZM597,62.1H573.64v8.27h12.49V98.05h-14v8.27h37.65V98.05H597Zm-11-7.2a6.94,6.94,0,0,0,5,2,6.87,6.87,0,0,0,2.74-.54,7.16,7.16,0,0,0,2.2-1.48,6.88,6.88,0,0,0,1.46-2.2,7.27,7.27,0,0,0,0-5.4,7.08,7.08,0,0,0-1.46-2.22,6.72,6.72,0,0,0-2.2-1.5A6.87,6.87,0,0,0,591,43a7.12,7.12,0,0,0-2.77.54,6.66,6.66,0,0,0-2.21,1.5,7.16,7.16,0,0,0-1.46,7.62A6.72,6.72,0,0,0,586,54.9Zm74.67,7.2H647.37L631.92,80.82v-36H621.3v61.5h10.62V84.21l16.32,22.11h13.89L642.72,82.25Zm45,7.47a11,11,0,0,0-3.37-4.68,15.15,15.15,0,0,0-5.81-2.81,33.46,33.46,0,0,0-8.45-.94,44.09,44.09,0,0,0-8.63.83A42.2,42.2,0,0,0,672,64.06v8.49A40.13,40.13,0,0,1,679.39,70a33.93,33.93,0,0,1,7.72-.89,14.65,14.65,0,0,1,4.18.52,7.45,7.45,0,0,1,2.77,1.48,5.57,5.57,0,0,1,1.54,2.33,9.28,9.28,0,0,1,.48,3.07v2.66h-5.79a37,37,0,0,0-9.55,1.09,21,21,0,0,0-6.79,3,12.27,12.27,0,0,0-4.05,4.57,12.7,12.7,0,0,0-1.33,5.79,16.73,16.73,0,0,0,.89,5.57,11.72,11.72,0,0,0,2.63,4.31,12,12,0,0,0,4.31,2.78,16.38,16.38,0,0,0,6,1,20.51,20.51,0,0,0,4.72-.51,17.5,17.5,0,0,0,4-1.41,18.68,18.68,0,0,0,3.36-2.15,32.24,32.24,0,0,0,2.91-2.72l.26,5.78h9.1V76.12A17.94,17.94,0,0,0,705.61,69.57ZM696.08,92.7a33.86,33.86,0,0,1-5.27,4.62,8.29,8.29,0,0,1-4.61,1.6,7.35,7.35,0,0,1-4.75-1.41,5,5,0,0,1-1.74-4.11,6,6,0,0,1,.55-2.55A5.53,5.53,0,0,1,682,88.74a8.77,8.77,0,0,1,3-1.44,17.16,17.16,0,0,1,4.57-.52h6.49Z"/></g><g id="Shape_6_copy_22" data-name="Shape 6 copy 22" class="cls-1"><g id="Shape_6_copy_22-2" data-name="Shape 6 copy 22"><path class="cls-3" d="M119.49,44c-1.27-3.41-2.66-6.25-4.82-8.19-10-11.13-19.18-15.33-34.4-8.29l-.77,0c-6.61,1.08-9.94,3.44-12.17,9.89C61.71,53.61,55.68,69.6,49.82,85.65h0l-2.61,3.49C36.43,97.06,26,104.42,11.06,98.36,5.57,96.13-3.37,96.81,1.31,108c.52,1.67,1.14,3.16,2.25,3.75.69,1.3,4.08,3.2,4.95,3.77,21,13.67,43.92,16.55,66.06,5.89C99.73,109.31,118,90.2,119.87,60.24,120.54,53.59,120.72,48,119.49,44Z"/></g></g><g id="Shape_7_copy_22" data-name="Shape 7 copy 22" class="cls-1"><g id="Shape_7_copy_22-2" data-name="Shape 7 copy 22"><path class="cls-4" d="M110.53,28.22c-.1-4.61.86-8.45,1.34-12.48C113.15,5,107.43.32,102.65,0a15.24,15.24,0,0,0-11.71,4.6c-1.27,1.41-1.89,3.92-.25,5.65,2.09,2.23,4,2.19,5.2-2.44,2-7.49,10.7.11,10.47,3.82-.48,7.57-6,10.44-10.74,13.72C90.52,28.87,86,29,78.21,31.76c-1.61.57-1.89,3-.27,4.43a19.13,19.13,0,0,0,6,.09c6.38-1,8.36.85,10.33,7.17,3.92-2.06,10.15-2.54,12.42-1.73,4.22,1.52,4.26,4.11,5.69,5.94a1.83,1.83,0,0,0,2.39-1.83C111,38.79,110.66,34.56,110.53,28.22Z"/></g></g></g></svg>