<?xml version="1.0" encoding="UTF-8" standalone="no"?>
<svg xmlns:inkscape="http://www.inkscape.org/namespaces/inkscape" xmlns:rdf="http://www.w3.org/1999/02/22-rdf-syntax-ns#" xmlns="http://www.w3.org/2000/svg" xmlns:sodipodi="http://sodipodi.sourceforge.net/DTD/sodipodi-0.dtd" xmlns:ns1="http://sozi.baierouge.fr" xmlns:cc="http://web.resource.org/cc/" xmlns:xlink="http://www.w3.org/1999/xlink" xmlns:dc="http://purl.org/dc/elements/1.1/" viewBox="0 0 317 800">
  <rect width="100%" height="100%" fill="none"/>
  <!-- <path style="fill:#ffffff" d="m0 0v96h1c0.6902-29.494 29.478-55.244 58-57.896 12.726-1.183 26.521 4.609 39 0.168 4.62-1.644 8.34-5.26 13-7.04 10.38-3.969 20.49-5.919 30-12.097 6.19-4.02 12.75-13.608 20-15.245 7.1-1.6062 6.02 9.992 7 14.11l27-17-19-1h-39-137z"/> -->
  <path style="fill:#989898" d="m165 28c-0.78 8.662-5.92 12.807-13 17v1c3.35 1.956 7.98 5.561 11.91 5.882 9.94 0.811 10.95-17.017 17.09-20.882 0.39-8.368 11.2-28.595 20-30-17.11-6.9635-20.91 26.822-36 27z"/>
  <!-- <path style="fill:#ffffff" d="m201 0c0.98 4.5012-3.09 13.678 1.32 16.424 10.77 6.706 24.59-7.4505 32.68-12.354 4.32-2.6208 11.05-4.2731 11.48 2.9346 0.75 12.317-8.6 23.073-17.48 30.187-2.88 2.311-12.79 6.802-12.79 10.912 0 3.438 4.62 6.665 6.75 8.896 5.21 5.458 10 11.588 13.97 18 11.35 18.281 15.91 40.87 11.4 62-3.76 17.62-14.41 31.88-24.96 46-4.51 6.05-13.72 15.82-13.04 24 0.87 10.34 16.08 22.16 20.31 32 4.12 9.62 6.11 20.51 5.27 31-0.44 5.4-4.25 12.36-2.31 17.71 2.15 5.92 9.08 10.48 12.92 15.29 6.24 7.81 10.28 18.21 12.1 28 1.3 6.94-1.79 13.23-1.3 20 0.84 11.48 6.73 21.23 5.58 33-1.84 18.64-23.78 24-38.9 24l22.28 75 29.84 110 1.78 23 35.1 134c-12.56 2.32-16.65-9.74-28-11 0.24 11.65 3.59 24.46 6.22 35.83 1.2 5.18 3.82 11.53-2.28 14.85-5.33 2.9-9.53-2.21-13.98-4.4-11.79-5.79-29.92-20.91-36.82-32.28-5.44-9-10.3-21.05-13.66-31-2.41-7.12-2.37-14.27-6.56-20.91-6.55-10.35-20.57-14.49-26.15-26.11-6.09-12.68-6.97-30.07-15.07-41.65-5.49-7.84-18.26-13.42-25.7-19.65-16.14-13.54-31.3-31.88-38.74-51.7-8.66-23.03-6.57-51.47 3.02-73.98 3.88-9.12 9.35-18.65 14.8-27 2-3.07 6.53-7.71 5.21-11.78-2.58-7.96-19.37-5.79-23.99-1.69-8.18 7.28-4.77 32.26-20.241 22.35-1.713-1.1-2.783-2.34-4.059-3.88-12.347 3.82-23.922-4.61-22.906-18 0.508-6.69 4.331-12.02 6.906-18-7.337 3.5-10.191 11.39-11.536 19-0.546 3.09 0.379 7.88-2.067 10.26-7.154 6.94-18.98-6.02-20.632-12.26-2.694-10.17 5.966-23.31 13.274-29.67 20.846-18.17 54.881-4.93 77.961 1.67 10.48 3 26.13 9.69 29-6-10.18-4.52-20.4-1.63-31-3.62-12.64-2.37-27.417-9.6-39-15.35-62.349-30.97-91.647-102.43-58.742-166.03 16.09-31.1 59.792-47.27 64.742-84-12.843-2.75-7.621 12.44-17.005 16.78-6.626 3.07-23.307-4.93-25.298-11.78-1.017-3.5 1.394-7.67 2.303-11l-31 18.81-11.891 2.12-5.109-9.93-4-32h-1v683h317v-800h-116z"/> -->
  <path style="fill:#cecece" d="m180 30c17.51 7.75 21.72-15.627 22-29-11.19 0.3705-18.4 19.877-22 29z"/>
  <path style="fill:#595959" d="m200 37l-9-2c-2.63 9.116-8.23 19.395-16 25l11 22c10.06-4.286 31.72-26.569 24-38 5.99-1.837 6.57-6.263 9.98-10.961 7.25-10.002 14.73-21.332 21.02-32.039-7.29 2.1441-12.85 7.322-19 11.558-10.46 7.206-18.93 10.307-22 24.442z"/>
  <path style="fill:#282828" d="m210 44c4.58 4.604 9.43 0.719 14-2.358 9.07-6.11 17.78-13.826 20.96-24.642 0.88-3.003 3.1-13.975-1.27-15.248-3.64-1.0592-8.77 6.1636-10.78 8.623-7.94 9.725-10.77 28.111-22.91 33.625z"/>
  <path style="fill:#191919" d="m120 28v1l37-3c1.64-6.342 10.58-12.979 8.68-19.853-1.56-5.625-8.04-1.2981-10.68 0.792-11.1 8.801-20.76 17.765-35 21.061z"/>
  <path style="fill:#aeaeae" d="m246 4v5h1l-1-5z"/>
  <path style="fill:#595959" d="m166 5l-9 21h-7v1l21.82 0.397 15.18-21.397-19 12-2-13z"/>
  <path style="fill:#989898" d="m200 16l-10 18 10 3c2.08-6.055 6.58-17.059 13-19l-13-2z"/>
  <path style="fill:#aeaeae" d="m126 28c0 3.674-0.9 9.47 1.86 12.397 3.04 3.229 22.21 5.571 26.14 3.879 3.95-1.703 15.56-11.269 9.39-16.248-2.62-2.118-8.21-0.939-11.39-1.314-3.44-0.406-6.53-0.739-10-0.29-5.35 0.694-10.68 0.588-16 1.576z"/>
  <path style="fill:#888888" d="m105 33l3.99 10.357 19.01-1.357-2-14-21 5z"/>
  <path style="fill:#707070" d="m178 31l-13 23 9 8c8.88-6.764 14.45-17.586 18-28l-14-3z"/>
  <path style="fill:#595959" d="m95 39v1l2 1c-4.67 4.33-4.996 8.924-5 15l17-10-2-12-12 5z"/>
  <path style="fill:#888888" d="m53 41c11.987 1.631 26.55 18.052 14 28l-2-5c-3.972 5.903-6.964 12.376-11.545 17.945-10.48 12.743-38.861 27.805-50.455 9.055h-1l-2 26h1v-4c38.849 0 87.342-28.757 77-74-6.583-0.52-20.611-4.212-25 2m32-2v1h3l-3-1z"/>
  <path style="fill:#090909" d="m80 80h1l9.864-22 6.136-18c-20.667-4.906-17 26.241-17 40z"/>
  <path style="fill:#989898" d="m1 93h1l1-2c3.4904 8.414 13.838 10.21 22 8.482 14.926-3.166 29.555-15.264 36.676-28.483 3.201-5.942 1.328-16.875 8.324-18.999-5.245-4.996-9.368-10.322-17.015-11.553-7.542-1.214-15.816 3.328-21.985 7.248-16.18 10.283-28.063 25.85-30 45.305z"/>
  <path style="fill:#707070" d="m78 40c10.053 43.978-39.512 73-77 73l4 38c12.516-3.01 24.472-6.27 36-12.32 5.32-2.79 11.764-8.92 18-6.68 1.729-1.96 12.402-12.12 7-13v-18l12 1v7c13.37 6.24 24.61 23.61 35 34 3.76 3.76 7.88 9.51 13 11.4 9.04 3.33 20.33-1.08 29-3.4-5.39-7.65-16.51-19.05-25-23.19-3.93-1.92-8.72 0.93-13-0.51-12.17-4.1-15.97-19.01-16-30.3h-1v3c-5.528-5.676-16.314-13.91-19.258-21.09-4.024-9.814 0.802-28.939 3.258-38.91h-6z"/>
  <!-- <path style="fill:#ffffff" d="m105 80c14.8-19.424 32.72-8.246 36.54 13 1 5.614-2.99 13.85-0.47 18.71 2.93 5.67 10.43 9.89 14.93 14.31 3.17 3.1 9.68 14.04 14.96 12.64 3.44-0.92 6.49-5.95 8.44-8.66 7.19-9.98 11.35-21.76 9.88-34-3.39-28.375-25.55-52.657-55.28-53.961-13.32-0.584-27.43 2.258-37.985 10.78-3.137 2.532-9.117 7.477-8.184 12.142 0.725 3.623 5.648 6.656 8.169 9.038 2.843 2.687 5.3 4.741 9 6.001z"/> -->
  <path style="fill:#4a4a4a" d="m213 47c-3.58 12.355-14.5 27.857-26 34l2.91 21-6.91 23c15.65-5.22 30.86-17.76 43-31 3.48-3.8 10.31-15.673 13-15-4.15-13.024-16.43-21.249-24-32h-2z"/>
  <path style="fill:#cecece" d="m67 69c13.92-7.305-4.135-26.204-1.816-7.002 0.292 2.415 1.085 4.696 1.816 7.002z"/>
  <path style="fill:#aeaeae" d="m37 56.529c-8.156 1.882-16.158 8.835-19.467 16.471-4.231 9.765 2.9 15.575 12.467 13.725 8.95-1.73 17.361-10.554 20.647-18.725 4.104-10.207-5.222-13.415-13.647-11.471m49 8.471c-5.973 12.575 3.508 21.038 15 27l4-12-19-15z"/>
  <path style="fill:#4a4a4a" d="m119 68v1h4l-4-1z"/>
  <path style="fill:#090909" d="m116 69.572c-24.856 7.131-18.243 66.628 10 57.778 24.54-7.7 19.46-66.23-10-57.778z"/>
  <!-- <path style="fill:#ffffff" d="m117 70l1 6 10-2v-1l-11-3z"/> -->
  <path style="fill:#aeaeae" d="m119 76c1.96 5.833 8.34 1.419 13 1-3.94-4.028-8.11-2.782-13-1z"/>
  <path style="fill:#989898" d="m82 76c-2.1 7.818 11.94 19.608 18 24 1.97-10.794-9.913-18.326-18-24z"/>
  <path style="fill:#707070" d="m120 80v4c5.05-0.868 10.47-2.3 13-7l-13 3z"/>
  <path style="fill:#4a4a4a" d="m133 78l-12 9 14-5-2-4z"/>
  <path style="fill:#383838" d="m237 78c-8.18 14.356-21.46 26.72-35 35.97-6.1 4.17-14.13 6.83-19.62 11.67-11.06 9.73-17.54 21.22-32.38 26.36v1l42 11.66 18 4.4 24-13.64 10-5.42h1c4.06-17.77 6.46-36.03 1.63-54-1.68-6.22-3.97-14.428-9.63-18m-96 14v11h1l-1-11z"/>
  <path style="fill:#aeaeae" d="m189 93v5h1l-1-5z"/>
  <path style="fill:#cecece" d="m66 101v18c6.801-4.73 11.97-8.38 12-17l-12-1z"/>
  <path style="fill:#4a4a4a" d="m68 122l10-8c-0.031 9.44 9.52 24.3 15 32h1l1-3c7.11 8.12 19.55 11.15 30 12-7.11-10.09-17.51-17.98-25.91-27-5.214-5.6-10.34-13.51-17.09-17.35-6.714-3.82-13.563 5.56-14 11.35z"/>
  <path style="fill:#707070" d="m249 110v19h1l-1-19z"/>
  <path style="fill:#aeaeae" d="m139 112l-10 14c3.08 4.36 7.07 7.51 11 11.08 7.27 6.58 13.2 15.59 23 8.83 1.94-1.35 4.78-3.24 4.79-5.91 0.02-2.94-3.79-5.96-5.5-8.09-5.71-7.1-14.53-16.93-23.29-19.91z"/>
  <path style="fill:#090909" d="m77 114c-9.598 7.82-21.694 17.07-24 30 9.832-3.6 25.982-18.1 24-30z"/>
  <path style="fill:#595959" d="m77 117l-4 9c15.515 13.35-9.887 35.37-14 15l-6 3 5-14c-18.061 4.33-32.386 19.58-52 20 0.2609 10.79 6.535 10.12 15 7.42 12.32-3.92 22.758-10.37 32-19.42-1.393 3.62-3.777 8.03-2.382 11.98 2.739 7.76 20.074 13.91 27.327 9.99 7.437-4.02 3.125-13.86 12.055-16.97-1.776-7.74-6.781-20.9-13-26z"/>
  <path style="fill:#707070" d="m72 126c-2.652 5.57-6.796 8.83-10.678 13.42-4.321 5.12 1.357 12.51 7.574 11.1 9.969-2.26 13.553-21.25 3.104-24.52z"/>
  <path style="fill:#989898" d="m247.33 139.67l0.34 0.66-0.34-0.66z"/>
  <path style="fill:#282828" d="m94 143l-2 6c20.07 1.76 36.77 14.67 55.04 21.1 23.35 8.22 49.34 9.84 71.96 19.9 8.7-12.1 23.64-26.49 25-42-10.9 5.56-21.94 19.32-34.58 20.9-5.5 0.69-11.33-2.72-16.42-4.24-12.85-3.81-26.12-8.14-39-11.24-8.44-2.03-19.1 1.94-28 1.54-12.36-0.56-21.66-6.01-32-11.96z"/>
  <path style="fill:#191919" d="m84 167c32.11 18.27 69.05 7.58 101.28 24.9 8.32 4.46 17.6 7.63 22.72 16.1 2.46-2.73 11.3-15.94 8.34-19.07-5.24-5.52-22.08-6.34-29.34-8.35-21.3-5.92-40.78-11.46-60.96-20.53-7.63-3.43-23.22-12.39-31.816-10.64-4.173 0.85-8.784 13.79-10.224 17.59z"/>
  <path style="fill:#aeaeae" d="m71 161v1h5l-5-1z"/>
  <path style="fill:#090909" d="m69 216c12.449-5.8 21.651-16.73 35-22.14 23.9-9.67 56.93-8.35 80 3.11 9.14 4.54 16.01 12.84 25 17.03-0.51-17.48-27.22-24.64-41-29.38-18.4-6.33-38.45-1.63-57-6.38-7.57-1.94-19.241-11.53-26.91-10.25-2.967 0.5-5.09 3.91-6.96 5.97-4.502 4.96-15.79 11.52-17.393 18.06-1.413 5.76 7.9 17.46 9.263 23.98z"/>
  <path style="fill:#191919" d="m69 216c-0.916-4.25-3.618-2.05-4.972 1-1.996 4.5-2.075 11.07-3.028 16h1c8.528-11.86 18.891-21.69 32-28.25 15.29-7.64 44.79-15.06 61-5.81 11.82 6.74 17.5 19.38 22.68 31.04 10.61 23.89 15.96 45.72 9.97 72.02-3.6 15.84-8.05 33.04-19.26 45.28-2.83 3.09-5.32 7.43-9.39 8.72l-5 4-4 3v2l-2-1v2l-2-1v2l-35 6v1c15.53 8.17 42.16 22.3 49.79-3 1.26-4.17 1.87-8.67 2.21-13 12.92 0 31.68 1.66 36.21-14 1.38-4.76 0.79-10.1 0.79-15h1v11c4.44-1.44 13.08-2.78 15.97-6.7 4.58-6.18-3.85-17.71-3.89-24.3-0.03-3.92 3.68-7.34 4.92-11l-29 9c6.92-9.02 16.45-13.66 20.77-25 11.87-31.19-11.19-66.68-39.77-79l17-5c-27.12-14.44-65.77-13.82-93-0.19-9.524 4.76-16.451 12.17-25 18.19z"/>
  <path style="fill:#4a4a4a" d="m58 192c-5.856 5.86-20.088 15.5-21.382 24-0.901 5.92 3.65 14.02 4.628 20 3.264 19.98-0.731 52.98-26.246 53l2 24c13.399 0 22.331-3.46 30.195-15 5.478-8.04 0.47-23.32 2.091-33 2.575-15.39 10.263-29.93 14.188-45 0.895-3.44 4.244-6.45 4.004-10.09-0.411-6.22-5.87-13.12-9.478-17.91z"/>
  <path style="fill:#282828" d="m120 196c6.48 12.34 21.97 11.73 31.7 20.72 6.56 6.07 9.36 18.52 13.6 26.28 3.8 6.96 10.36 18.52 4.7 26l1 3c-4.9 4.22-4.84 15.93-6.94 22-5.52 16.03-19.7 31.76-37.06 34-4.21 14.88-31.176 13-43 13-4.282 0-10.008 0.94-13.907-1.18-5.669-3.09-8.005-11.53-11.093-16.82-8.15 9.95-18.973 13.04-31 16 6.318 21.93 29.188 38.63 48 49.42 6.26 3.59 14.475 9.69 21.996 9.73 14.904 0.09 3.614-23.02-0.996-28.15 3.11 1.84 7.03 5.24 10 2 15.2 3.62 24.82-4.34 39-5v-2l2 1v-2l2 1v-2l2 1 2-4 5-4c4.83-0.9 7.78-6 10.98-9.58 10.58-11.8 14.44-29.37 17.9-44.42 6.11-26.54 0.38-48.89-10.2-73-4.91-11.21-10.43-23.54-21.7-30.06-9.35-5.42-25.56-2.94-35.98-2.94z"/>
  <path style="fill:#383838" d="m92 205c7.101 15.89 25.7 13.29 39 20 9.86 4.98 12.81 15.99 17.6 25 2.17 4.1 5.69 8.22 6.14 13 0.33 3.45-1.54 6.62-1.74 10h-2l-3 10h-3c-0.67 15.39-12.61 20.99-24.91 27.23-14.18 7.21-23.67 12.77-40.09 12.77-5.436 0-14.981 1.82-19.786-1.03-7.309-4.33-8.75-20.42-10.214-27.97h-1c-7.197 12.45-16.709 18.99-31 19l9 27c11.525-4.21 25.242-5.32 32-17 2.184 5.24 5.003 13.86 10.185 16.82 3.793 2.17 9.613 1.18 13.815 1.18 11.183 0 41.52 2.61 44-13 17.61-1.4 32.28-17.77 37.41-34 2.15-6.81 2.22-16.32 6.59-22l-1-3c8.37-7.32-5.23-30.1-9.46-37.17-2.74-4.59-4.43-11.27-8.1-15.11-6.27-6.55-16.62-8.35-24.35-12.36-3.73-1.95-5.8-6.78-10.18-7.19-8.67-0.81-18.209 4.63-25.91 7.83z"/>
  <path style="fill:#595959" d="m170 203l22 13.71 13-3.71c-5.88-12.34-23.44-17.94-35-10z"/>
  <path style="fill:#4a4a4a" d="m79 213c6.083 7.9 19.492 12.37 29 14.82 5.01 1.28 11.13 0.55 14.87 4.73 7.09 7.92 18.25 21.88 20.76 32.29 2.25 9.32-4.08 17.66-9.2 24.58-18.99 25.69-49.279 26.58-78.43 26.58 3.198 10.64 17.988 7 27 7 14.962 0 24.3-5.46 37.09-12.3 12.58-6.73 24.58-11.58 24.91-27.7h3l3-10h2c2.1-14.6-5.77-39.06-20.04-47.47-7.42-4.37-16.9-4.39-24.79-7.09-5.79-1.98-12.508-11.77-18.174-11.47-3.884 0.2-7.818 4.07-10.996 6.03z"/>
  <path style="fill:#989898" d="m209 207l7.95 18.17 10.05 29.83c-10.72 2.32-14 6.52-14 17l15-3c-0.14 7.02-4.54 15.71 3 20-2.03-10.93 1.73-21.9 0.91-33-1.36-18.5-10.73-35.49-22.91-49z"/>
  <path style="fill:#707070" d="m192 217l8 12c5.53-1.87 11.99-6.43 17-2 2.24-14.48-16.81-14.12-25-10z"/>
  <path style="fill:#595959" d="m69 224c20.97 2.71 39.64 16.72 49.93 35 2.53 4.51 9.6 12.45 6.51 17.82-1.91 3.32-5.89 5.38-8.54 8.08-3.52 3.58-5.78 8.25-10.03 11.13-16.422 11.13-36.412 5.98-54.87 5.97 1.474 18.05 18.364 15.23 33 13.83 23.44-2.24 62.06-20.83 59.1-49.83-0.98-9.57-11.17-20.13-16.68-27.59-2.28-3.09-3.79-7.06-7.6-8.56-12.21-4.79-30.076-4.34-38.82-15.85l-12 10m-34-8c-1.819 2.71-4.227 5.61-4.422 9-0.839 14.6 11.108 47.21-15.578 48v16c30.362 0 34.963-53 20-73z"/>
  <path style="fill:#707070" d="m65 229c16.423 6.17 23.6 16.81 31.308 31.96 7.612 14.97 5.732 25.95-13.308 28.41-7.966 1.03-12.526-8.86-20-10.37l2-3-13-21h-1v47c12.341 0.01 24.59 1.51 37 0.96 14.35-0.63 20.4-8.95 29.67-18.06 3.11-3.07 8.98-5.93 8.97-10.92-0.03-13.58-19.72-33.48-30.064-40.19-7.35-4.77-25.768-15.14-31.576-4.79z"/>
  <path style="fill:#cecece" d="m201 228l12 33 14-6c-0.96-7.45-3.99-27.39-12.33-30.3-3.95-1.38-9.86 2.26-13.67 3.3z"/>
  <path style="fill:#707070" d="m29 225c-6.502 15.62-13.856 30.63-14 48 20.132-0.22 24.777-34.9 14-48z"/>
  <path style="fill:#888888" d="m65 276l-2 3c6.873 2.34 11.262 10.9 19 10.71 38.23-0.96 9.309-48.77-9.039-57.96-11.328-5.68-19.714 11.16-20.528 21.25-0.655 8.11 6.875 18.02 12.567 23z"/>
  <path style="fill:#cecece" d="m227 233l4.91 24-1.57 29 15.37 19 8.29 11c-2.91-12.4-16.94-18.07-20.32-29.17-1.4-4.6 1.59-10.27 2.14-14.83 1.36-11.44 0.14-30.75-8.82-39z"/>
  <path style="fill:#4a4a4a" d="m213 270h-1c-0.81 18.5-15.85 22.93-23 37 12.92-0.6 32.49-6.91 35-21l4 1v-18l-15 1z"/>
  <path style="fill:#090909" d="m224 286l-11.22 21 4.19 25.58-15.97 7.42v-11h-1c0 4.59 0.5 9.54-0.79 14-4.63 16.02-22.87 15-36.21 15-0.55 4.34-1.12 8.84-2.52 13-9.67 28.67-36.29 6.06-53.48 1l-10-2c4.57 7 15.51 25 1 28v1c11.09 5.56 17.97 2.49 18-10l50 11c2.68-9.16 14.11-1.04 21-1.03 21.77 0.04 28.52-15.63 21-33.97l9-2v-6c8.76-0.38 18.07-2.21 23.3-10 10.09-15.04-1.85-44.32-17.3-51 2.69-3.69 7.05-7.56 1-10z"/>
  <path style="fill:#282828" d="m228 288l-5 8c6.07 3.88 10.9 9.5 14 16l18 15c-0.36-15.38-13.62-32.33-27-39z"/>
  <path style="fill:#707070" d="m238 311l5 27h1l1-2c3.22 4.57 8 7.29 5 13v1l3 3h1l2-27-18-15z"/>
  <path style="fill:#888888" d="m253 316c1.03 6.1 3.24 11.68 2.96 18-0.28 6.49-2.75 12.35-1.75 19 2.22 14.66 8.69 22.59 3.79 38l-9-5c0.16 3.84 1.67 5.2 5 7-4.53 7.95-7.39 3.03-14 2.12-3.15-0.44-6.86 1.42-10 1.88v1l10 6v1l-16 1v2c5.41 0 10.71 0.19 16-1.13 3.57-0.9 6.81-2.3 9.98-4.16 22.72-13.29 8.4-33.7 6.24-52.71-1.33-11.74 5.88-23.37-3.22-34z"/>
  <path style="fill:#cecece" d="m258 329l-1 26h1v-26z"/>
  <path style="fill:#989898" d="m244 336l-2 7 7 8h1c2.87-7.26 0.19-10.63-6-15z"/>
  <path style="fill:#cecece" d="m242 343c-1 1.98-2.59 3.94-3.36 6-3.78 10.15 17.28 6.96 7.26-3.68-1.14-1.21-2.45-1.64-3.9-2.32z"/>
  <path style="fill:#191919" d="m224 356l-7 1v6l-9 2c1.72 5.62 6.96 8.4 12 11v-5c11.53-0.1 19.3-4.48 29-10 1.92 8.3 1.54 21.34 11 24 2.37-12.74-2.14-23.86-8-35-4.85 2.46-28.74 26.32-28 6z"/>
  <path style="fill:#aeaeae" d="m236 351l-2 2v1c3.23 3.12 6.07 6.59 10 3l-8-6z"/>
  <path style="fill:#707070" d="m240 361c-2.43-5.19-11.64-10.81-15.86-3.44-3.45 6.03 6.46 7.2 9.86 6.06 2.06-0.71 4.03-1.69 6-2.62z"/>
  <path style="fill:#595959" d="m240 366v1c16.32 1.84 3.39 29.74-11 21.14-2.14-1.28-4.08-3.14-5.57-5.14-1.86-2.52-2.26-4.97-2.43-8l-3 1-7-5 1.93 9.67 5.36 7.43-5.29 10.9 10 8 17-2v-1l-10-6v-1c7.73-0.68 15.54-3.66 19-11l9 5 2-6c-9.46-4.43-8.12-15.16-11-24l-9 5z"/>
  <path style="fill:#888888" d="m220 371c0.26 3.26 0.48 6.94 1.73 10 0.91 2.24 2.47 4.16 4.31 5.72 7.85 6.64 18.01 2.42 21.04-6.72 1.31-3.94 1.82-11.06-3.21-12.56-6.89-2.06-16.59 3.41-23.87 3.56z"/>
  <path style="fill:#aeaeae" d="m236 370.44c-2.77 0.29-7.05 0.32-9.14 2.42-5.89 5.91 2.57 11.52 8.14 10.96 9.68-0.97 12.33-14.57 1-13.38z"/>
  <path style="fill:#707070" d="m212 381c-1.04 5.9 0.67 8.31 6 11 1.34-5.86-0.91-8.27-6-11z"/>
  <path style="fill:#cecece" d="m201 396v3c7.8 3.43 13.75 0.63 16-8-7.41-3.99-9.82 1.1-16 5z"/>
  <path style="fill:#282828" d="m116 389c-0.05 6.22-1.2 9.9-6 14 6.36 4.15 16.95 8.95 24.7 5.4 3.05-1.4 3.78-4.96 7.32-5.97 7.06-2.01 17.58-1.37 24.98-1.43l-10.01 22.68-9.78 5.04-12.21 19.28 5 2c5.84-10.24 11.92-21.11 25-18 4.47-6.24 13.94-16.73 13.35-25-0.31-4.43-4.67-7.46-5.35-12-4.45-0.73-6.29 0.53-7 5l-50-11z"/>
  <path style="fill:#aeaeae" d="m245 392l8 5 1-4c-3.42-2.31-5.69-4.04-9-1z"/>
  <path style="fill:#cecece" d="m241 394c3.23 4.23 6.88 6.18 11 2-4-2.73-6.42-4.06-11-2z"/>
  <path style="fill:#4a4a4a" d="m172 396c4.13 10.67 11.97 11 22 11-5.67-6.88-13.31-9.83-22-11z"/>
  <path style="fill:#989898" d="m200 396l-5 2c3.68 4.5 7.26 6.3 13 5v-1l-8-6z"/>
  <path style="fill:#707070" d="m185 399v1c7.69 4.56 9.83 7.1 19 5-6.74-5.32-10.68-6.17-19-6z"/>
  <path style="fill:#090909" d="m201 405l-1 64h1l2-17h4l1 25h1c2.21-11.39 1.01-24.99 15-25 0.94 45.41 17.42 90.7 21 136 6.26-0.22 9.86 12.84 13.17 17 4.33 5.45 11.59 5 17.83 5-4.72-2.29-9.77-2.78-13.96-6.34-13.01-11.04-16.48-31.85-19.64-47.66-6.6-33.04-6.75-66.7-10.68-100-1.59-13.4-2.88-26.78-5.72-40-1.42-6.6-4.41-14.4-12.04-16.12-4.12-0.92-9.01 3.95-12.96 5.12z"/>
  <path style="fill:#707070" d="m103.67 401.33l0.66 0.34-0.66-0.34z"/>
  <path style="fill:#595959" d="m136 409c9.97 0 21.7 0.72 22 13h1l8-21c-9.32 0.03-27.7-2.27-31 8z"/>
  <path style="fill:#090909" d="m179 406l-21 36 35 6 6-41-20-1z"/>
  <path style="fill:#191919" d="m198 406l-4 35c4.39 4.3 3.31 12.18 2.91 18-1.03 15.02-5.21 30.14-5.87 45-1.5 34-11.22 66.93-12.06 101-0.17 7.24-2 14.68-0.83 21.96 0.63 3.92 4.15 6.28 5.28 10.04 3.71 12.29 6.51 23.49 12.57 35 13.18-2.1 19.94 11.52 32 15v-5l6 1c0-11.05-0.14-23.05-1.58-34-0.48-3.67 0.26-8.45-1.74-11.72-2.7-4.42-11.54-7-15.64-10.6-9.82-8.62-14.78-21.09-16.6-33.68-1.01-7.03 1.68-13.96 1.54-21-0.42-21.4 0.25-41.68 3.32-63 1.43-9.92 4.62-19.98 5.1-30 0.43-8.97-1.4-18.01-1.4-27h-4l-2 17h-1l1-63h-3z"/>
  <path style="fill:#aeaeae" d="m71 408v1h12l-12-1z"/>
  <path style="fill:#595959" d="m65 409c1.857 3.33 5.886 5.91 6.272 10 1.372 14.49-23.32 9.86-30.272 8-2.902 7.48-6.591 17.07-2.682 25 2.537 5.14 13.331 12.36 19.079 7.82 3.27-2.58 2.603-13.66 4.162-17.82 3.202-8.54 12.679-16.64 20.442-21.12 9.035-5.22 33.409-10.65 29.999 7.12 9.9 0.32 11.18 6.75 9 15l14 4c5.58-7.36 9.09-17.22 18-21-6.82-3.66-15.56-4.6-23-6.71-21.85-6.2-42.319-10.29-65-10.29z"/>
  <path style="fill:#aeaeae" d="m126 409v1h21l-21-1z"/>
  <path style="fill:#888888" d="m42 427c7.317 3.67 28.917 5.65 29.639-7 0.869-15.23-17.852-7.35-23.465-1.82-2.614 2.58-4.553 5.57-6.174 8.82z"/>
  <path style="fill:#cecece" d="m157 415l-8 10c5.51-0.41 10.4-4.06 8-10z"/>
  <path style="fill:#707070" d="m64 448h22l-1 8 21 1c2.65-7.98 8.6-12.8 17-13v-1c-3.01-7.88 1.34-14.85-11-15 3.81-13.9-12.715-13.68-22-10.96-13.891 4.08-24.725 16.36-26 30.96m162.33-30.33l0.34 0.66-0.34-0.66z"/>
  <path style="fill:#aeaeae" d="m157 421l-4 5c3.16-0.55 4.92-1.65 4-5z"/>
  <path style="fill:#707070" d="m227.33 421.67l0.34 0.66-0.34-0.66z"/>
  <path style="fill:#595959" d="m228 425c1.97 45.95 7.94 93.54 19.37 138 3.9 15.16 9.42 40 28.63 41l-8-41h-1v4h-1c-6.29-30.46-17.75-59.74-24.83-90-4-17.08-4.38-35.82-13.17-52z"/>
  <path style="fill:#4a4a4a" d="m137 454l11 1 16-24c-13.78 0-21.77 10.56-27 23z"/>
  <path style="fill:#989898" d="m36 439v8h1l-1-8z"/>
  <path style="fill:#191919" d="m189 467l4-19c-12.63-3.11-33.68-10.99-41.98 1-1.72 2.5-6.22 7.35-4.77 10.68 1.39 3.18 7.88 3.12 10.75 3.28 10.75 0.6 21.22 3.95 32 4.04z"/>
  <path style="fill:#4a4a4a" d="m194 441l-4 20c8.31 5.08 3.02 23.76 3 32h1c0.34-16.35 6.71-36.07 2-52h-2m-130 7c0.035 12.78 9.549 23.69 23 18 3.432 6.25 9.616 6 16 6l2-16h-20l1-8h-22z"/>
  <path style="fill:#888888" d="m136 449c-2.67 9.02-9.99 16.17-13.49 25-14.37 36.22-21.45 82.48 4.79 115.62 9.34 11.79 20.05 21.71 31.7 31.12 5.18 4.18 13.07 7.34 17.12 12.59 6.05 7.85 6.62 19.69 10.62 28.67 6.82 15.3 23.23 29.9 38.26 37-2.79-5.38-9.34-7.81-14-11.52-6.1-4.84-11.1-10.95-15.3-17.48-5.15-8.01-7.84-16.95-10.52-26-1.12-3.78-0.95-8.54-3.69-11.61-6.07-6.79-17.28-11.07-24.49-17.01-19.11-15.72-34.08-35.46-41-59.38h13l-4-35h-11l6-31h11l5-15h-10l13-25-3-1z"/>
  <path style="fill:#282828" d="m206 492l7-1c0.58 7.49 6.23 5.12 12 5v-6l5 2-6-40-9.26 1.03-3.34 10.97-5.4 28z"/>
  <path style="fill:#707070" d="m126 475c12.2 0 17.65-9.63 21-21-13.06 0-17.64 8.8-21 21z"/>
  <path style="fill:#282828" d="m144 460l-7 15 34 5.75 13.44 0.22 4.56-13.97c-14.16-0.29-31.53-2.79-45-7z"/>
  <path style="fill:#707070" d="m190 461l-7 30h6v23h1c1.39-17.65 6.3-35.25 3-53h-3z"/>
  <path style="fill:#989898" d="m103 465v6h1l-1-6m138 2l6 33c5.9-5.85-2.04-26.52-6-33z"/>
  <path style="fill:#888888" d="m97 472v1h5l-5-1z"/>
  <path style="fill:#383838" d="m196 500c3.6 2.33 3 6.01 3 10h1l5-38c-8.01 1.39-7.66 21.1-9 28m-60-26l-3 12 50 7 2-11c-15.8-0.04-33.8-3.73-49-8z"/>
  <path style="fill:#cecece" d="m119 479c-13.66 24.15-17.67 62.75-5 88h1c-2.4-19.68-6.85-36.76-3.8-57 1.3-8.57 10.88-23.02 7.8-31z"/>
  <path style="fill:#4a4a4a" d="m132 484c-1.27 5.5-6.97 16.1-4.38 21.57 1.52 3.22 7.43 2.56 10.38 3.02 8.66 1.35 17.35 2.55 26 4 3.28 0.55 8.39 2.34 11.57 0.8 3.55-1.71 8.09-17.45 4.81-20.21-2.7-2.28-8.99-2.34-12.38-2.93-10.54-1.83-26.82-1.15-36-6.25z"/>
  <path style="fill:#aeaeae" d="m120 490l-4 17c11.71 0 12.54-6.18 14-17h-10z"/>
  <path style="fill:#595959" d="m225 490c0.07 23.8 7.04 48.55 10.92 72 1 6.02 0.65 20.74 7.08 23 0-23.84-4.88-49.6-9.66-73-1.45-7.08-0.14-19.56-8.34-22z"/>
  <path style="fill:#aeaeae" d="m172 535c20.84-0.01 17-28.96 17-44-7.54 0.25-7.46 5.73-9.15 12-2.83 10.45-6.97 21.16-7.85 32z"/>
  <path style="fill:#4a4a4a" d="m203 513h7l3-22c-9.73 0.32-9.84 14.07-10 22z"/>
  <path style="fill:#383838" d="m213 496c-6.84 22.92-6 50.27-6 74h1v-20l25 1c3.6-10.03-3.8-29.49-5.56-40-0.63-3.73-0.18-10.36-2.62-13.4-2.25-2.81-8.59-1.08-11.82-1.6z"/>
  <path style="fill:#cecece" d="m249 498c-3.45 12.56 7.46 34.54 11 47h1l-10-47h-2z"/>
  <path style="fill:#707070" d="m196 500c-6.85 27.81-12.41 60.35-13 89h8l8-89h-3z"/>
  <path style="fill:#595959" d="m126 506l3 50h-13c1.26 6 3.97 19.68 10.21 22.4 3.83 1.66 9.69 0.6 13.79 0.6l-7-17c10.94 2.6 24.08-0.18 35-2l9-46c-15.45-0.32-36.51-2.72-51-8z"/>
  <path style="fill:#cecece" d="m114 521h11l1-14c-10.48 0-11.79 3.81-12 14z"/>
  <path style="fill:#4a4a4a" d="m190 509l-13 63h-10v-12l-34 2 7 17h-14l4 9 15-1-2-6h23c1.29 3.88 6.71 5.87 9.36 1.68 8.89-14.01 12.41-40.39 13.73-56.68 0.44-5.48 3.09-11.75 0.91-17z"/>
  <path style="fill:#888888" d="m203 513l-4 48h8l3-48h-7z"/>
  <path style="fill:#383838" d="m237 517c1.94 24.51 4.61 52.74 15.81 75 3.75 7.44 8.82 14.02 17.19 16.24 2.37 0.62 7.19 1.69 8.88-0.84 1.94-2.93-1.43-10.09-1.88-13.4-3.36 2.54-1.94 6.32-1 10-11.42-1.17-17.9-11.17-21.99-21-5.42-13.03-8.63-27.11-10.93-41-1.21-7.34-1.89-18.9-6.08-25z"/>
  <path style="fill:#707070" d="m185 527c-3.29 7.17-6.32 8-14 8l-4 37h10c2.45-11.88 12.77-33.31 8-45z"/>
  <path style="fill:#989898" d="m261 539l5 28h1c0.99-8.41-0.82-21.04-6-28z"/>
  <path style="fill:#191919" d="m208 550l2 43h-7c2.83 19.13 18.52 40.9 39 43 1.67 20.41 10.63 43.14 20.31 61 4.83 8.92 14.73 18.13 16.69 28l-9-9v5c-9.03-4.12-18.9 0.44-28 3-1.93-11.24-3.8-22.51-16-22l10 31c2.64-0.44 6.21-2.1 8.79-0.87 4.1 1.97 6.49 9.25 8.96 12.87 6.32 9.3 14.85 22.15 25.25 27l-8-51 9 8v-6c9.27 10.04 19.46 20.14 32 26l-12.44-50-13.56-53-10-21-23 5-1-11-6 1-8.92-52-4.73-17.97-24.35-0.03z"/>
  <path style="fill:#282828" d="m184 551c-1.14 13.06-3.9 27.35-7.66 40-1.8 6.07-0.84 11.16-8.34 12-0.1-8.56-5.56-8.76-13-7l2 4h-15c4.35 12.25 24.43 25.01 36 30l4.04-60 1.96-19z"/>
  <path style="fill:#595959" d="m199 561c0.2 9.79-1.53 31.85 11 32l-3-32h-8z"/>
  <path style="fill:#383838" d="m180 568c-1.76 4.92-7.06 25.59-14 13h-23l2 6-14-1c3.42 14.4 13.88 14 26 14l-2-4c7.06-0.85 12.72-1.5 13 7 8.96-0.5 15.28-27.16 12-35z"/>
  <path style="fill:#282828" d="m243 577v8h-3l6 35 6-1 1 11 21.28-5.33 1.72-14.67c-6.76 0-12.89-0.41-17.53-6.06-3.93-4.77-6.53-15.19-13.47-15.94l-2-11z"/>
  <path style="fill:#090909" d="m199 579c-2.71 16.61 1.97 34.76 14.17 46.82 4.57 4.51 14.54 7.01 17.51 12.31 5.72 10.22 3.31 33.25 3.32 44.87l-6-1v5c-11.59-4.85-18.12-14.98-31-16 3.9 11.75 19.71 23.33 29.54 29.97 2.39 1.61 5.62 0 7.9 1.8 4.06 3.23 6.19 16.2 7.56 21.23 9.79-2.02 18.22-6.29 28-3v-5l9 9c-1.13-10.19-11.81-20-16.69-29-9.77-18.02-17.57-39.62-20.31-60-25.47-4.53-40.51-33.08-41-57h-2z"/>
  <path style="fill:#383838" d="m191 620v-31c-2.42 0.01-6.26-0.56-7.97 1.6-2.77 3.5-2.61 24.3 0.15 27.8 1.7 2.15 5.41 1.59 7.82 1.6z"/>
  <path style="fill:#595959" d="m276 609l-3 3c0.37 8.47 2.08 24.11 11 27l-8-30z"/>
  <path style="fill:#090909" d="m258 670c1 21.78 24.21 54.62 44 63-2.96-22-9.17-48.24-17-69l-27 6z"/>
  <path style="fill:#cecece" d="m190 670c2.2 15.4 19.22 19.9 27.3 31.09 5.06 7.02 4.57 15.26 7.54 22.91 3.78 9.78 8.08 23.72 14.64 31.91 4.6 5.76 11.12 10.2 16.52 15.18 5.76 5.32 26.86 26.97 35.4 17.34 3.54-4 0.8-10.15-0.18-14.52-2.5-11.16-5.72-23.49-6.22-34.91 7.54 1.52 20.88 19.08 28 9-13.32-1.14-21-12.43-32-18l10 58c-15.38 1.89-29.5-15.26-38.56-26-11.32-13.41-15.97-27.77-21.75-44-1.97-5.53-2.75-12.85-5.83-17.82-2.62-4.21-7.79-5.37-11.44-8.39-8.15-6.75-14.17-16.83-23.42-21.79z"/>
  <path style="fill:#888888" d="m299.33 698.67l0.34 0.66-0.34-0.66z"/>
  <path style="fill:#4a4a4a" d="m271 721c0.42 9.76 0.31 31.32 13 29l-3-22-10-7z"/>
  <path style="fill:#888888" d="m280 723c0.56 10.18 16.36 22.27 26 23v-1l-26-22z"/>
  <path style="fill:#707070" d="m306.33 725.67l0.34 0.66-0.34-0.66m1 4l0.34 0.66-0.34-0.66z"/>
  <path style="fill:#4a4a4a" d="m237 733c2.7 9.35 12.76 27.81 22.04 31.88 3.01 1.32 6.88-0.43 9.96-0.88l-15.92-21-7.47-10.96-8.61 0.96z"/>
  <path style="fill:#aeaeae" d="m236 733c3 17.62 20.63 40.17 36 48.71 6.48 3.59 10.17 8.13 18 6.29v-1c-26.63-11.09-36.9-33.38-54-54z"/>
  <path style="fill:#707070" d="m284 748l-8 3 3 21c-7.28-5.12-9.83-8.91-19-6 7.28 9.89 19.79 17.33 31 22-0.1-11.78-2.17-29.25-7-40z"/>
  <metadata>
    <rdf:RDF>
      <cc:Work>
        <dc:format>image/svg+xml</dc:format>
        <dc:type rdf:resource="http://purl.org/dc/dcmitype/StillImage"/>
        <cc:license rdf:resource="http://creativecommons.org/licenses/publicdomain/"/>
        <dc:publisher>
          <cc:Agent rdf:about="http://openclipart.org/">
            <dc:title>Openclipart</dc:title>
          </cc:Agent>
        </dc:publisher>
      </cc:Work>
      <cc:License rdf:about="http://creativecommons.org/licenses/publicdomain/">
        <cc:permits rdf:resource="http://creativecommons.org/ns#Reproduction"/>
        <cc:permits rdf:resource="http://creativecommons.org/ns#Distribution"/>
        <cc:permits rdf:resource="http://creativecommons.org/ns#DerivativeWorks"/>
      </cc:License>
    </rdf:RDF>
  </metadata>
</svg>
